<?xml version="1.0" encoding="UTF-8" standalone="yes"?>
<svg version="1.2" width="1024" height="1024" baseProfile="tiny-ps" xmlns="http://www.w3.org/2000/svg">
  <title>bimi-svg-tiny-12-ps</title>
  <path d="M0 0 C337.92 0 675.84 0 1024 0 C1024 337.92 1024 675.84 1024 1024 C686.08 1024 348.16 1024 0 1024 C0 686.08 0 348.16 0 0 Z " fill="#017D53" transform="translate(0,0)"/>
  <path d="M0 0 C29.04 0 58.08 0 88 0 C87.39480995 21.18165178 86.75410186 42.31335598 85.69775391 63.47045898 C85.52983557 66.83898379 85.36572347 70.20764699 85.2037735 73.57646084 C85.04433456 76.88311584 84.88146612 80.18959835 84.71875 83.49609375 C84.661427 84.68053574 84.604104 85.86497772 84.54504395 87.08531189 C84.22205032 93.50097044 83.79565751 99.89467095 83.22438049 106.29318237 C82.01082858 120.93288503 81.89323133 135.69366991 81.82376099 150.37783813 C81.816332 151.81908171 81.80572009 153.26031287 81.79171753 154.70150757 C81.64225225 170.93185723 81.64225225 170.93185723 89 185 C94.40616065 189.60098779 99.63991537 189.67440107 106.62109375 189.4375 C112.56745854 188.66756606 115.88263971 186.50497773 119.70703125 181.98046875 C125.72724527 173.61661911 127.49600863 164.59839927 128.57348633 154.51025391 C128.69750981 153.38724695 128.8215333 152.26424 128.94931507 151.10720253 C130.40899128 137.13730529 131.06278622 123.11893559 131.71768546 109.09368467 C131.89956567 105.23911925 132.09147431 101.3850513 132.28218079 97.53091431 C132.63956051 90.27891163 132.98831786 83.02652287 133.33373529 75.77394164 C133.80258077 65.94074774 134.28523848 56.10823156 134.76699543 46.27566338 C135.52239054 30.85096173 136.2597567 15.42545353 137 0 C166.37 0 195.74 0 226 0 C226 12.3755548 226 12.3755548 225.7722168 16.85205078 C225.6964743 18.37992218 225.6964743 18.37992218 225.61920166 19.93865967 C225.5631073 21.0133551 225.50701294 22.08805054 225.44921875 23.1953125 C225.36157257 24.93787323 225.36157257 24.93787323 225.27215576 26.71563721 C225.0800778 30.51890666 224.88392673 34.32195286 224.6875 38.125 C224.58578264 40.11984919 224.48406725 42.11469848 224.3825922 44.10956001 C224.0315696 51.00966836 223.67661343 57.90956857 223.31968784 64.80937386 C223.07675045 69.50759991 222.8357063 74.20591978 222.59570312 78.90429688 C221.9148255 92.22210114 221.22129128 105.53905348 220.49378967 118.85440063 C220.19613877 124.31108298 219.91021254 129.76792201 219.6468811 135.22636414 C217.82890135 172.40738716 209.8112189 210.1913799 182 237 C159.10598624 256.99410535 130.25898989 265.22527123 100.25 265.25 C99.51589905 265.25067474 98.7817981 265.25134949 98.02545166 265.25204468 C70.44654058 265.2118378 44.05121333 260.05841345 23 241 C22.22011719 240.30132813 21.44023438 239.60265625 20.63671875 238.8828125 C1.5677242 220.87142605 -6.75313847 192.11679845 -8.13298035 166.5345459 C-8.77615137 142.79405096 -6.99626612 118.97146796 -5.79876709 95.27478027 C-5.56807132 90.67820561 -5.34387667 86.08132405 -5.11980057 81.48442268 C-4.14922 61.59209713 -3.17459212 41.6996899 -1.8984375 21.82421875 C-1.82154694 20.61981644 -1.74465637 19.41541412 -1.66543579 18.17451477 C-1.25878952 12.07953236 -0.67595965 6.08363683 0 0 Z " fill="#FDFEFE" transform="translate(711,409)"/>
  <path d="M0 0 C69.3 0 138.6 0 210 0 C210 12.37756635 210 12.37756635 209.74047852 17.32250977 C209.68364395 18.43058487 209.62680939 19.53865997 209.56825256 20.68031311 C209.50576828 21.83897385 209.443284 22.99763458 209.37890625 24.19140625 C209.28258156 26.03024635 209.28258156 26.03024635 209.18431091 27.90623474 C209.04867326 30.48207898 208.9116126 33.05784866 208.77319336 35.63354492 C208.56293831 39.55432656 208.35829386 43.47537269 208.15429688 47.39648438 C208.02116798 49.91147607 207.88771535 52.42645065 207.75390625 54.94140625 C207.6934462 56.10209122 207.63298615 57.26277618 207.57069397 58.45863342 C207.51070724 59.56355637 207.45072052 60.66847931 207.38891602 61.80688477 C207.33784195 62.76409927 207.28676788 63.72131378 207.23414612 64.70753479 C206.91848692 69.14620303 206.44277944 73.57220565 206 78 C185.54 78 165.08 78 144 78 C144 85.92 144 93.84 144 102 C143.72627133 108.79659351 143.41045984 115.57853726 143.01171875 122.3671875 C142.90701506 124.23990772 142.8029906 126.11266603 142.69958496 127.98545837 C142.48113749 131.92366726 142.25905093 135.86164441 142.03378296 139.79946899 C141.50351532 149.07685357 140.99349669 158.35535932 140.483881 167.63389778 C140.36962888 169.71386922 140.25516635 171.79382911 140.14049339 173.87377739 C138.54140363 202.90713561 137.26885466 231.94990641 136 261 C106.63 261 77.26 261 47 261 C47.60767881 241.55427817 48.26354744 222.1627557 49.33984375 202.74609375 C49.46847947 200.37420941 49.5967712 198.0023064 49.7247467 195.63038635 C50.05781506 189.47242953 50.39507728 183.31471028 50.73345947 177.15704346 C51.071355 170.997399 51.40578646 164.83756683 51.74023438 158.67773438 C51.80577829 157.47064127 51.87132221 156.26354816 51.93885231 155.01987648 C52.07009317 152.60283727 52.20132202 150.1857974 52.3325386 147.76875687 C52.52554942 144.21661626 52.71907557 140.66450403 52.91268921 137.11239624 C53.98528728 117.41035398 55.00241078 97.7060016 56 78 C36.2 78 16.4 78 -4 78 C-3.71125 71.998125 -3.4225 65.99625 -3.125 59.8125 C-3.03879395 58.00885986 -2.95258789 56.20521973 -2.86376953 54.34692383 C-1.9854574 36.22639757 -0.97927309 18.11655215 0 0 Z " fill="#FEFEFE" transform="translate(283,409)"/>
  <path d="M0 0 C69.3 0 138.6 0 210 0 C210 23.02952494 210 23.02952494 209.37890625 33.37109375 C209.28258156 35.07544334 209.28258156 35.07544334 209.18431091 36.81422424 C209.04998753 39.16903059 208.91295907 41.52368423 208.77319336 43.87817383 C208.55973785 47.48416212 208.356436 51.09062694 208.15429688 54.69726562 C208.02142091 57.00524224 207.88797887 59.31318634 207.75390625 61.62109375 C207.6934462 62.69185654 207.63298615 63.76261932 207.57069397 64.86582947 C207.51070724 65.86199783 207.45072052 66.8581662 207.38891602 67.88452148 C207.33784195 68.75463364 207.28676788 69.62474579 207.23414612 70.52122498 C206.99653636 73.03666766 206.49551489 75.52242553 206 78 C185.87 78 165.74 78 145 78 C145 82.62 145 87.24 145 92 C144.86189253 95.32969472 144.70037463 98.6412365 144.484375 101.96484375 C144.36838403 103.87874202 144.25241863 105.79264185 144.13647461 107.70654297 C144.07378387 108.71537537 144.01109314 109.72420776 143.94650269 110.76361084 C142.27537309 137.75550708 140.91722704 164.76228559 139.56776714 191.77169514 C139.4862862 193.40240334 139.40476372 195.03310947 139.32320118 196.66381359 C139.13458361 200.43529509 138.94639409 204.20679556 138.7598114 207.9783783 C137.87957748 225.65444063 136.93019678 243.32626121 136 261 C106.96 261 77.92 261 48 261 C48 247.05200306 48.05998043 233.30662231 48.79956055 219.40698242 C48.93957072 216.77355217 49.07101428 214.13979344 49.20117188 211.50585938 C49.55331603 204.5217485 49.91863305 197.54806254 50.54296875 190.58203125 C51.09674798 184.35052336 51.22860877 178.12726741 51.375 171.875 C51.91920163 152.12048089 53.22807315 132.40837985 54.47134399 112.68789673 C54.92002626 105.50683288 55.31317669 98.32407409 55.63293457 91.13604736 C55.84806177 86.66523677 56.36256293 82.46205949 57 78 C37.2 78 17.4 78 -3 78 C-3 51.98077634 -1.34402522 25.98448761 0 0 Z " fill="#FEFEFE" transform="translate(64,409)"/>
  <path d="M0 0 C-0.58007812 0.70382812 -1.16015625 1.40765625 -1.7578125 2.1328125 C-14.30284703 17.99006737 -18.86926845 35.04928385 -16.77734375 55.13818359 C-14.70501074 70.77189302 -9.90769208 82.64293741 2.5 92.5625 C15.60939249 102.08627895 30.81798808 106.59395755 46.9375 106.5 C48.00709961 106.49863037 49.07669922 106.49726074 50.17871094 106.49584961 C60.19378632 106.30701168 69.43243684 104.31054111 79.02148438 101.55126953 C81.32722621 100.90882567 83.64337944 100.41671949 86 100 C88.51646791 113.06885669 90.66762859 126.12307385 92.25024414 139.33984375 C92.76198751 143.47781162 93.49553986 147.45413388 94.4921875 151.49609375 C95.7282081 157.59062608 96.28792557 163.82616316 97 170 C96.154375 170.19335938 95.30875 170.38671875 94.4375 170.5859375 C93.303125 170.84632813 92.16875 171.10671875 91 171.375 C89.88625 171.63023437 88.7725 171.88546875 87.625 172.1484375 C85.13540775 172.73327706 82.65369824 173.35240619 80.1796875 174 C54.37843295 180.44105038 23.96031945 180.52833464 -2 175 C-2.79325684 174.83371094 -3.58651367 174.66742187 -4.40380859 174.49609375 C-42.21456824 166.25812312 -76.63317238 143.60075575 -97.72802734 110.96728516 C-98.23027832 110.17370605 -98.7325293 109.38012695 -99.25 108.5625 C-99.74064941 107.80501465 -100.23129883 107.0475293 -100.73681641 106.26708984 C-102.71982589 103.01356827 -103.98034209 100.84201378 -104.0703125 96.98828125 C-102.62658918 92.95744789 -100.7458904 89.33826245 -98.625 85.625 C-98.18019287 84.83770508 -97.73538574 84.05041016 -97.27709961 83.23925781 C-85.29429711 62.37449328 -69.90526311 41.11738548 -51 26 C-50.05898438 25.23300781 -49.11796875 24.46601562 -48.1484375 23.67578125 C-12.56801674 -4.83385259 -12.56801674 -4.83385259 0 0 Z " fill="#FDFEFE" transform="translate(597,498)"/>
  <path d="M0 0 C2.69990662 1.79993774 4.5418865 3.083773 6 6 C6.82830906 12.70254166 4.480008 16.13297994 0.875 21.4375 C-4.42876322 29.61353106 -8.01363675 37.75109439 -11 47 C-10.23671387 46.98428955 -9.47342773 46.9685791 -8.68701172 46.95239258 C7.85183535 46.65860553 23.67948705 47.11069135 40 50 C41.21405518 50.20810303 41.21405518 50.20810303 42.45263672 50.42041016 C55.25620512 52.62810256 55.25620512 52.62810256 58 54 C55.79781373 67.07533979 53.22056889 80.06442721 50.55615234 93.05273438 C49.8663204 96.41733403 49.18099514 99.78283109 48.49609375 103.1484375 C48.05755517 105.2943247 47.61876274 107.44016004 47.1796875 109.5859375 C46.97552216 110.5889389 46.77135681 111.59194031 46.56100464 112.62533569 C46.27533127 114.01421494 46.27533127 114.01421494 45.98388672 115.43115234 C45.81750702 116.24369476 45.65112732 117.05623718 45.47970581 117.8934021 C45 120 45 120 44 123 C43.37996094 122.82984375 42.75992188 122.6596875 42.12109375 122.484375 C40.21174728 121.96187553 38.30149123 121.44269506 36.390625 120.92578125 C34.06406653 120.29053429 31.74128261 119.64134799 29.421875 118.98046875 C-7.17732092 108.75872679 -42.00614482 113.90949981 -75 132 C-80.60342876 135.30561984 -85.85882648 139.01978327 -91 143 C-91.81307617 143.62479248 -91.81307617 143.62479248 -92.64257812 144.26220703 C-107.86214229 156.1344008 -121.73863917 170.33282968 -133 186 C-133.39477539 186.54462891 -133.78955078 187.08925781 -134.19628906 187.65039062 C-139.31867038 194.7584852 -143.98406921 202.09432239 -148.46875 209.61328125 C-148.9740625 210.40089844 -149.479375 211.18851563 -150 212 C-150.33 212 -150.66 212 -151 212 C-151.62882848 188.18513678 -151.46733413 162.81165729 -143.68261719 140.04052734 C-142.96360107 137.89119375 -142.32562806 135.72767828 -141.6953125 133.55078125 C-132.72890032 103.45479575 -112.46676357 79.27875019 -85.15600586 64.04541016 C-69.07237802 55.38587395 -48.59321555 47.23021719 -30 48 C-29.979375 46.700625 -29.95875 45.40125 -29.9375 44.0625 C-28.48559942 29.9810533 -19.60759148 11.7894297 -9.3125 2.0625 C-5.69177507 -0.19191364 -4.15784446 -0.90387923 0 0 Z " fill="#FDFEFD" transform="translate(637,358)"/>
  <path d="M0 0 C1.70736328 0.01353516 1.70736328 0.01353516 3.44921875 0.02734375 C6.21637881 0.0505972 8.9830676 0.08327132 11.75 0.125 C9.9064785 21.66889835 -9.18258414 44.61245635 -23.25 60.125 C-23.81589844 60.77339844 -24.38179687 61.42179687 -24.96484375 62.08984375 C-40.22385664 78.5913208 -64.72979622 90.90498726 -87.21875 92.31054688 C-90.398577 92.39202994 -93.56928437 92.39813248 -96.75 92.375 C-97.81347656 92.38273437 -98.87695312 92.39046875 -99.97265625 92.3984375 C-106.62929621 92.38210219 -112.78317441 91.71099801 -119.25 90.125 C-118.38740529 79.34256611 -115.12737536 68.75995553 -110.25 59.125 C-109.83105469 58.26519531 -109.41210938 57.40539062 -108.98046875 56.51953125 C-105.2683397 49.26911941 -100.65049636 43.2028782 -95.25 37.125 C-94.62351562 36.41472656 -93.99703125 35.70445312 -93.3515625 34.97265625 C-70.55506831 10.6852521 -32.40934646 -0.49742799 0 0 Z " fill="#FDFEFD" transform="translate(765.25,303.875)"/>
  <path d="M0 0 C4.60610295 2.33802189 7.3367468 5.52770792 8.92578125 10.3515625 C9.79386017 16.01380453 9.20578862 20.54088503 5.92578125 25.3515625 C2.14213836 29.0746671 -0.95020503 31.49188875 -6.32421875 31.6015625 C-11.2998318 31.52182511 -14.91701648 30.54384123 -18.515625 26.88671875 C-22.6823644 22.03145831 -23.42745207 19.13517796 -23.35546875 12.890625 C-22.8043819 7.91553537 -20.06724174 5.22636847 -16.44921875 2.0390625 C-11.4902571 -1.48441025 -5.83460982 -1.82400232 0 0 Z " fill="#1C8463" transform="translate(933.07421875,642.6484375)"/>
  <path d="M0 0 C4.60610295 2.33802189 7.3367468 5.52770792 8.92578125 10.3515625 C9.79386017 16.01380453 9.20578862 20.54088503 5.92578125 25.3515625 C2.14213836 29.0746671 -0.95020503 31.49188875 -6.32421875 31.6015625 C-11.2998318 31.52182511 -14.91701648 30.54384123 -18.515625 26.88671875 C-22.6823644 22.03145831 -23.42745207 19.13517796 -23.35546875 12.890625 C-22.8043819 7.91553537 -20.06724174 5.22636847 -16.44921875 2.0390625 C-11.4902571 -1.48441025 -5.83460982 -1.82400232 0 0 Z M-19.11328125 8.484375 C-21.09178322 12.32878127 -21.02301307 16.20304112 -20.07421875 20.3515625 C-18.04033584 23.77639876 -15.66206611 26.55763882 -12.07421875 28.3515625 C-7.86402337 28.78168069 -4.1872902 28.821526 -0.26171875 27.1640625 C4.34035159 23.43584275 4.34035159 23.43584275 6.27734375 17.98046875 C6.43824057 13.05848872 6.37523111 9.13483009 2.92578125 5.3515625 C-0.32607481 2.86339991 -3.12547392 1.48438678 -7.19921875 0.9140625 C-12.3467929 1.697389 -15.90757383 4.38025277 -19.11328125 8.484375 Z " fill="#EAF3F0" transform="translate(933.07421875,642.6484375)"/>
  <path d="M0 0 C0 6.6 0 13.2 0 20 C1.32 20 2.64 20 4 20 C4 17.69 4 15.38 4 13 C5.75 13.125 5.75 13.125 8 14 C9.38123963 15.96722008 10.71488126 17.96868328 12 20 C12.99 20.66 13.98 21.32 15 22 C10.68513539 24.43077215 6.86946103 24.84392739 2 24 C-1.54966971 22.04880735 -3.75989575 19.36015637 -6 16 C-6.67084901 11.89722868 -6.94717318 7.73421276 -4.9140625 4.01171875 C-1.60128282 0 -1.60128282 0 0 0 Z " fill="#097956" transform="translate(919,647)"/>
  <path d="M0 0 C8.3984375 -0.1953125 8.3984375 -0.1953125 11 0 C13 2 13 2 13.125 5.125 C13.08375 6.07375 13.0425 7.0225 13 8 C11.02 8.99 11.02 8.99 9 10 C10.32 12.64 11.64 15.28 13 18 C12.01 18 11.02 18 10 18 C8.64721885 16.01310269 7.31431695 14.01254782 6 12 C5.01 11.67 4.02 11.34 3 11 C3 13.31 3 15.62 3 18 C2.01 18 1.02 18 0 18 C0 12.06 0 6.12 0 0 Z " fill="#ECF4F2" transform="translate(920,649)"/>
  <path d="M0 0 C0.33 0 0.66 0 1 0 C1.061875 1.03125 1.12375 2.0625 1.1875 3.125 C2.19490082 7.92952697 3.61779254 9.53529968 7 13 C10.4454817 14.72274085 14.22501659 14.37421575 18 14 C20.7667506 12.79031105 20.7667506 12.79031105 23 11 C25.5 9.5 25.5 9.5 28 8 C27.7416116 11.48824341 26.73533264 12.24214247 24.0625 14.6875 C19.23429026 18.33329103 15.93208525 18.54110237 10 18 C4.84780496 16.21654787 2.06997054 13.47338565 -1 9 C-1.9375 5.8125 -1.9375 5.8125 -2 3 C-1.34 2.01 -0.68 1.02 0 0 Z " fill="#EAF3F0" transform="translate(912,656)"/>
  <path d="M0 0 C2.31 0 4.62 0 7 0 C7.38218767 1.65614657 7.71395102 3.32457024 8 5 C7 6 7 6 3.4375 6.0625 C2.303125 6.041875 1.16875 6.02125 0 6 C0 4.02 0 2.04 0 0 Z " fill="#1E8564" transform="translate(922,651)"/>
  <path d="M0 0 C0.33 0.99 0.66 1.98 1 3 C-6.11389522 9.70387244 -6.11389522 9.70387244 -11 10 C-11 9.34 -11 8.68 -11 8 C-12.32 7.67 -13.64 7.34 -15 7 C-14.12988281 6.87044922 -14.12988281 6.87044922 -13.2421875 6.73828125 C-7.41168056 5.6895597 -4.24345436 4.13464784 0 0 Z " fill="#DBEBE6" transform="translate(939,664)"/>
  <path d="M0 0 C0.886875 -0.00257813 1.77375 -0.00515625 2.6875 -0.0078125 C5 0.125 5 0.125 7 1.125 C7 1.785 7 2.445 7 3.125 C6.32453125 3.11339844 5.6490625 3.10179687 4.953125 3.08984375 C4.06109375 3.08082031 3.1690625 3.07179688 2.25 3.0625 C1.36828125 3.05089844 0.4865625 3.03929687 -0.421875 3.02734375 C-2.7818838 3.11673802 -4.74498524 3.45587179 -7 4.125 C-7 3.135 -7 2.145 -7 1.125 C-4.51245214 -0.11877393 -2.77344699 -0.00806235 0 0 Z " fill="#F2F8F6" transform="translate(926,641.875)"/>
  <path d="M0 0 C-0.38597015 2.79828356 -0.80136573 3.8205884 -2.9375 5.75 C-5 7 -5 7 -7 7 C-3.86206897 0 -3.86206897 0 0 0 Z " fill="#E4F1ED" transform="translate(919,644)"/>
  <path d="M0 0 C0.33 0 0.66 0 1 0 C1.33 2.64 1.66 5.28 2 8 C1.01 8.33 0.02 8.66 -1 9 C-1.625 6.1875 -1.625 6.1875 -2 3 C-1.34 2.01 -0.68 1.02 0 0 Z " fill="#E1EEEA" transform="translate(912,656)"/>
</svg>